{
  "accessors": [
    {
      "bufferView": 2,
      "componentType": 5126,
      "count": 65532,
      "max": [
        2.632594108581543,
        2.0575757026672363,
        3.007405996322632
      ],
      "min": [
        -2.641761302947998,
        -1.9175009727478027,
        -1.9294085502624512
      ],
      "type": "VEC3"
    },
    {
      "bufferView": 2,
      "byteOffset": 786384,
      "componentType": 5126,
      "count": 65532,
      "max": [
        0.9999480843544006,
        0.9999917149543762,
        0.9999988079071045
      ],
      "min": [
        -0.9591630697250366,
        -0.9582843780517578,
        -0.9999879598617554
      ],
      "type": "VEC3"
    },
    {
      "bufferView": 1,
      "componentType": 5126,
      "count": 65532,
      "max": [
        1.0,
        0.9719202518463135
      ],
      "min": [
        -1.0360674096432376e-08,
        -1.1464485361045718e-08
      ],
      "type": "VEC2"
    },
    {
      "bufferView": 0,
      "componentType": 5125,
      "count": 360765,
      "type": "SCALAR"
    },
    {
      "bufferView": 2,
      "byteOffset": 1572768,
      "componentType": 5126,
      "count": 61423,
      "max": [
        2.597538471221924,
        2.0443906784057617,
        2.9917848110198975
      ],
      "min": [
        -2.7011570930480957,
        -2.0575754642486572,
        -1.9340994358062744
      ],
      "type": "VEC3"
    },
    {
      "bufferView": 2,
      "byteOffset": 2309844,
      "componentType": 5126,
      "count": 61423,
      "max": [
        1.0,
        0.9995577335357666,
        1.0
      ],
      "min": [
        -1.0,
        -0.9999849200248718,
        -0.9999996423721313
      ],
      "type": "VEC3"
    },
    {
      "bufferView": 1,
      "byteOffset": 524256,
      "componentType": 5126,
      "count": 61423,
      "max": [
        0.9660067558288574,
        0.9908370971679688
      ],
      "min": [
        -1.2575057439789816e-08,
        3.5211712656746386e-08
      ],
      "type": "VEC2"
    },
    {
      "bufferView": 0,
      "byteOffset": 1443060,
      "componentType": 5125,
      "count": 325719,
      "type": "SCALAR"
    },
    {
      "bufferView": 2,
      "byteOffset": 3046920,
      "componentType": 5126,
      "count": 1236,
      "max": [
        1.6415200233459473,
        1.0930469036102295,
        1.7581908702850342
      ],
      "min": [
        0.7132081985473633,
        -1.1206605434417725,
        1.4079467058181763
      ],
      "type": "VEC3"
    },
    {
      "bufferView": 2,
      "byteOffset": 3061752,
      "componentType": 5126,
      "count": 1236,
      "max": [
        0.9928004741668701,
        0.98906010389328,
        0.9989778399467468
      ],
      "min": [
        -0.9928432703018188,
        -0.9890599846839905,
        -0.9996458888053894
      ],
      "type": "VEC3"
    },
    {
      "bufferView": 1,
      "byteOffset": 1015640,
      "componentType": 5126,
      "count": 1236,
      "max": [
        1.0,
        1.0
      ],
      "min": [
        0.0,
        0.5
      ],
      "type": "VEC2"
    },
    {
      "bufferView": 0,
      "byteOffset": 2745936,
      "componentType": 5125,
      "count": 5760,
      "type": "SCALAR"
    },
    {
      "bufferView": 2,
      "byteOffset": 3076584,
      "componentType": 5126,
      "count": 523,
      "max": [
        2.5449435710906982,
        2.2406978607177734,
        -0.5541217923164368
      ],
      "min": [
        -1.9891542196273804,
        -2.3041017055511475,
        -2.650064706802368
      ],
      "type": "VEC3"
    },
    {
      "bufferView": 2,
      "byteOffset": 3082860,
      "componentType": 5126,
      "count": 523,
      "max": [
        0.9820030927658081,
        0.9929699897766113,
        0.9996050000190735
      ],
      "min": [
        -0.9653825759887695,
        -0.9865273833274841,
        -0.9013712406158447
      ],
      "type": "VEC3"
    },
    {
      "bufferView": 1,
      "byteOffset": 1025528,
      "componentType": 5126,
      "count": 523,
      "max": [
        1.0218398571014404,
        0.8311378359794617
      ],
      "min": [
        0.01924038678407669,
        0.04868859052658081
      ],
      "type": "VEC2"
    },
    {
      "bufferView": 0,
      "byteOffset": 2768976,
      "componentType": 5125,
      "count": 2280,
      "type": "SCALAR"
    },
    {
      "bufferView": 2,
      "byteOffset": 3089136,
      "componentType": 5126,
      "count": 2352,
      "max": [
        1.5446298122406006,
        1.093098759651184,
        1.7602379322052002
      ],
      "min": [
        0.6954675912857056,
        -1.120937466621399,
        1.145835041999817
      ],
      "type": "VEC3"
    },
    {
      "bufferView": 2,
      "byteOffset": 3117360,
      "componentType": 5126,
      "count": 2352,
      "max": [
        0.9997508525848389,
        1.0,
        0.997482419013977
      ],
      "min": [
        -0.9995703101158142,
        -1.0,
        -0.997482419013977
      ],
      "type": "VEC3"
    },
    {
      "bufferView": 1,
      "byteOffset": 1029712,
      "componentType": 5126,
      "count": 2352,
      "max": [
        1.0004799365997314,
        1.0
      ],
      "min": [
        -0.0004803913470823318,
        0.0
      ],
      "type": "VEC2"
    },
    {
      "bufferView": 0,
      "byteOffset": 2778096,
      "componentType": 5125,
      "count": 12600,
      "type": "SCALAR"
    },
    {
      "bufferView": 2,
      "byteOffset": 3145584,
      "componentType": 5126,
      "count": 1050,
      "max": [
        1.5288052558898926,
        0.973017692565918,
        1.6792871952056885
      ],
      "min": [
        0.8147522211074829,
        -1.0034856796264648,
        1.2203770875930786
      ],
      "type": "VEC3"
    },
    {
      "bufferView": 2,
      "byteOffset": 3158184,
      "componentType": 5126,
      "count": 1050,
      "max": [
        0.999570369720459,
        1.0,
        0.9974822998046875
      ],
      "min": [
        -0.9995703101158142,
        -1.0,
        -0.997482419013977
      ],
      "type": "VEC3"
    },
    {
      "bufferView": 1,
      "byteOffset": 1048528,
      "componentType": 5126,
      "count": 1050,
      "max": [
        1.0,
        1.0
      ],
      "min": [
        0.0,
        0.0
      ],
      "type": "VEC2"
    },
    {
      "bufferView": 0,
      "byteOffset": 2828496,
      "componentType": 5125,
      "count": 5400,
      "type": "SCALAR"
    }
  ],
  "asset": {
    "extras": {
      "author": "AverageMan (https://sketchfab.com/QWER123468078)",
      "license": "CC-BY-4.0 (http://creativecommons.org/licenses/by/4.0/)",
      "source": "https://sketchfab.com/3d-models/handsome-squidward-440eabe91bf849f99301f86a353643aa",
      "title": "Handsome Squidward"
    },
    "generator": "Sketchfab-16.74.0",
    "version": "2.0"
  },
  "bufferViews": [
    {
      "buffer": 0,
      "byteLength": 2850096,
      "name": "floatBufferViews",
      "target": 34963
    },
    {
      "buffer": 0,
      "byteLength": 1056928,
      "byteOffset": 2850096,
      "byteStride": 8,
      "name": "floatBufferViews",
      "target": 34962
    },
    {
      "buffer": 0,
      "byteLength": 3170784,
      "byteOffset": 3907024,
      "byteStride": 12,
      "name": "floatBufferViews",
      "target": 34962
    }
  ],
  "buffers": [
    {
      "byteLength": 7077808,
      "uri": "scene.bin"
    }
  ],
  "extensionsUsed": [
    "KHR_materials_specular"
  ],
  "images": [
    {
      "uri": "textures/Skin_baseColor.png"
    }
  ],
  "materials": [
    {
      "doubleSided": true,
      "extensions": {
        "KHR_materials_specular": {
          "specularColorFactor": [
            1.0,
            1.0,
            1.0
          ],
          "specularFactor": 0.5592397995879607
        }
      },
      "name": "Skin",
      "pbrMetallicRoughness": {
        "baseColorTexture": {
          "index": 0
        },
        "metallicFactor": 0.0,
        "roughnessFactor": 0.5958113396155111
      }
    },
    {
      "doubleSided": true,
      "name": "Eyelid",
      "pbrMetallicRoughness": {
        "baseColorFactor": [
          0.223267,
          0.312827,
          0.23621,
          1.0
        ],
        "metallicFactor": 0.0,
        "roughnessFactor": 0.4921919762041179
      }
    },
    {
      "doubleSided": true,
      "name": "Shirt",
      "pbrMetallicRoughness": {
        "baseColorFactor": [
          0.2806968848888971,
          0.17422824396963463,
          0.003724803521652867,
          1.0
        ],
        "metallicFactor": 0.0,
        "roughnessFactor": 0.4102839170557473
      }
    },
    {
      "doubleSided": true,
      "name": "material",
      "pbrMetallicRoughness": {
        "baseColorFactor": [
          0.5190816593712904,
          0.4456877535235063,
          0.25565444583400265,
          1.0
        ],
        "metallicFactor": 0.0,
        "roughnessFactor": 0.18133388596993819
      }
    },
    {
      "alphaMode": "BLEND",
      "doubleSided": true,
      "extensions": {
        "KHR_materials_specular": {
          "specularColorFactor": [
            1.0,
            1.0,
            1.0
          ],
          "specularFactor": 0.9310504565347246
        }
      },
      "name": "EyeLense",
      "pbrMetallicRoughness": {
        "baseColorFactor": [
          0.44978071845671186,
          0.07429338502388325,
          0.07429338502388325,
          0.8883836598359156
        ],
        "metallicFactor": 0.7847642964245224,
        "roughnessFactor": 0.18133388596993819
      }
    }
  ],
  "meshes": [
    {
      "name": "Cylinder_Skin_0",
      "primitives": [
        {
          "attributes": {
            "NORMAL": 1,
            "POSITION": 0,
            "TEXCOORD_0": 2
          },
          "indices": 3,
          "material": 0,
          "mode": 4
        }
      ]
    },
    {
      "name": "Cylinder_Skin_0",
      "primitives": [
        {
          "attributes": {
            "NORMAL": 5,
            "POSITION": 4,
            "TEXCOORD_0": 6
          },
          "indices": 7,
          "material": 0,
          "mode": 4
        }
      ]
    },
    {
      "name": "Cylinder_Eyelid_0",
      "primitives": [
        {
          "attributes": {
            "NORMAL": 9,
            "POSITION": 8,
            "TEXCOORD_0": 10
          },
          "indices": 11,
          "material": 1,
          "mode": 4
        }
      ]
    },
    {
      "name": "Cylinder_Shirt_0",
      "primitives": [
        {
          "attributes": {
            "NORMAL": 13,
            "POSITION": 12,
            "TEXCOORD_0": 14
          },
          "indices": 15,
          "material": 2,
          "mode": 4
        }
      ]
    },
    {
      "name": "Cylinder_Eye_0",
      "primitives": [
        {
          "attributes": {
            "NORMAL": 17,
            "POSITION": 16,
            "TEXCOORD_0": 18
          },
          "indices": 19,
          "material": 3,
          "mode": 4
        }
      ]
    },
    {
      "name": "Cylinder_EyeLense_0",
      "primitives": [
        {
          "attributes": {
            "NORMAL": 21,
            "POSITION": 20,
            "TEXCOORD_0": 22
          },
          "indices": 23,
          "material": 4,
          "mode": 4
        }
      ]
    }
  ],
  "nodes": [
    {
      "children": [
        1
      ],
      "matrix": [
        1.0,
        0.0,
        0.0,
        0.0,
        0.0,
        2.220446049250313e-16,
        -1.0,
        0.0,
        0.0,
        1.0,
        2.220446049250313e-16,
        0.0,
        0.0,
        0.0,
        0.0,
        1.0
      ],
      "name": "Sketchfab_model"
    },
    {
      "children": [
        2
      ],
      "matrix": [
        0.009999999776482582,
        0.0,
        0.0,
        0.0,
        0.0,
        0.0,
        0.009999999776482582,
        0.0,
        0.0,
        -0.009999999776482582,
        0.0,
        0.0,
        0.0,
        0.0,
        0.0,
        1.0
      ],
      "name": "e4e0623e13b14af0b4b3a78056344d72.fbx"
    },
    {
      "children": [
        3
      ],
      "name": "RootNode"
    },
    {
      "children": [
        4,
        5,
        6,
        7,
        8,
        9
      ],
      "matrix": [
        56.618106842041016,
        0.0,
        0.0,
        0.0,
        0.0,
        -9.224260432584622e-06,
        -56.61810684204027,
        0.0,
        0.0,
        86.00041198730355,
        -1.4011245548949082e-05,
        0.0,
        0.0,
        -152.9112091064453,
        0.0,
        1.0
      ],
      "name": "Cylinder"
    },
    {
      "mesh": 0,
      "name": "Cylinder_Skin_0"
    },
    {
      "mesh": 1,
      "name": "Cylinder_Skin_0"
    },
    {
      "mesh": 2,
      "name": "Cylinder_Eyelid_0"
    },
    {
      "mesh": 3,
      "name": "Cylinder_Shirt_0"
    },
    {
      "mesh": 4,
      "name": "Cylinder_Eye_0"
    },
    {
      "mesh": 5,
      "name": "Cylinder_EyeLense_0"
    }
  ],
  "samplers": [
    {
      "magFilter": 9729,
      "minFilter": 9987,
      "wrapS": 10497,
      "wrapT": 10497
    }
  ],
  "scene": 0,
  "scenes": [
    {
      "name": "Sketchfab_Scene",
      "nodes": [
        0
      ]
    }
  ],
  "textures": [
    {
      "sampler": 0,
      "source": 0
    }
  ]
}
